<svg width="49" height="49" viewBox="0 0 49 49" fill="none" xmlns="http://www.w3.org/2000/svg">
<path d="M20.112 22.5046C20.5283 22.2031 20.7293 21.7055 20.7293 21.0212C20.7437 20.6958 20.6767 20.3752 20.5331 20.0833C20.4039 19.8488 20.2125 19.6526 19.978 19.5139C19.7349 19.3664 19.4649 19.2688 19.1837 19.2268C18.8774 19.1693 18.5664 19.1406 18.2602 19.1454H14.8962V22.9592H18.5377C19.1646 22.964 19.6957 22.8108 20.112 22.5046V22.5046ZM20.6767 25.9499C20.2077 25.591 19.5809 25.414 18.8009 25.414H14.8866V29.912H18.7243C19.0832 29.912 19.4134 29.8785 19.734 29.8115C20.0373 29.7522 20.3265 29.6353 20.5857 29.467C20.8298 29.3091 21.026 29.0938 21.1743 28.8162C21.3179 28.5387 21.3896 28.1846 21.3896 27.7587C21.3896 26.9117 21.1504 26.3136 20.6767 25.9499V25.9499ZM24.5 3.0625C12.6615 3.0625 3.0625 12.6615 3.0625 24.5C3.0625 36.3385 12.6615 45.9375 24.5 45.9375C36.3385 45.9375 45.9375 36.3385 45.9375 24.5C45.9375 12.6615 36.3385 3.0625 24.5 3.0625ZM28.6392 16.7911H35.2618V18.4037H28.6392V16.7911ZM24.5 30.0891C24.1902 30.6771 23.7479 31.1849 23.208 31.5725C22.6434 31.9648 22.0165 32.252 21.3514 32.4194C20.6555 32.6059 19.9376 32.6977 19.2172 32.6922H11.293V16.37H18.9971C19.7771 16.37 20.4853 16.4418 21.1313 16.5758C21.7725 16.7098 22.318 16.9395 22.7773 17.2505C23.2319 17.5615 23.5908 17.9778 23.8444 18.4946C24.0933 19.0066 24.2225 19.6479 24.2225 20.4087C24.2225 21.2317 24.0358 21.9112 23.6626 22.4615C23.2846 23.0118 22.7391 23.4568 21.9974 23.8062C23.007 24.0933 23.7487 24.6053 24.2368 25.323C24.7345 26.0504 24.9785 26.9213 24.9785 27.9453C24.9785 28.7779 24.8206 29.4909 24.5 30.0891ZM37.841 27.5625H29.3043C29.3043 28.4908 29.6249 29.3809 30.1082 29.8594C30.5963 30.3331 31.2949 30.5724 32.2089 30.5724C32.8692 30.5724 33.4291 30.4049 33.9076 30.0747C34.3813 29.7445 34.6685 29.3952 34.7737 29.0315H37.6353C37.1759 30.4527 36.4772 31.4672 35.5298 32.0797C34.5919 32.6922 33.4435 32.9984 32.1084 32.9984C31.1753 32.9984 30.3379 32.8453 29.5866 32.5534C28.8641 32.2711 28.2133 31.8404 27.6773 31.2854C27.1489 30.7153 26.7405 30.0449 26.4763 29.3139C26.1844 28.5052 26.0408 27.6534 26.0504 26.7969C26.0504 25.9116 26.1987 25.0886 26.4858 24.3229C27.0361 22.8348 28.1798 21.6433 29.6393 21.026C30.4192 20.7006 31.2566 20.5379 32.1036 20.5475C33.1085 20.5475 33.9794 20.7389 34.7355 21.1313C35.4633 21.5059 36.0953 22.0429 36.5825 22.7008C37.0658 23.3563 37.4056 24.1028 37.6209 24.945C37.8267 25.7729 37.8984 26.6437 37.841 27.5625V27.5625ZM32.0031 22.9879C31.4863 22.9879 31.0509 23.0788 30.7159 23.2559C30.381 23.4329 30.1034 23.653 29.8929 23.9066C29.6924 24.1515 29.5442 24.4349 29.4574 24.7393C29.3809 24.9929 29.3282 25.2513 29.3091 25.5145H34.5967C34.5201 24.6866 34.233 24.0741 33.8502 23.6435C33.4482 23.2176 32.8022 22.9879 32.0031 22.9879V22.9879Z" fill="#F1EAE0"/>
</svg>
