<svg width="35" height="35" viewBox="0 0 35 35" fill="none" xmlns="http://www.w3.org/2000/svg">
<path fill-rule="evenodd" clip-rule="evenodd" d="M17.5 0C7.83854 0 0 7.83854 0 17.5C0 27.1615 7.83854 35 17.5 35C27.1425 35 35 27.1615 35 17.5C35 7.83854 27.1425 0 17.5 0ZM29.0588 8.06604C31.2134 10.6901 32.4057 13.9721 32.4377 17.3673C31.9448 17.2725 27.0098 16.2662 22.0369 16.8933C21.9217 16.6454 21.8269 16.38 21.7131 16.1146C21.4038 15.3845 21.0751 14.6629 20.7273 13.9504C26.231 11.7104 28.7365 8.48458 29.0588 8.06604V8.06604ZM17.5 2.58271C21.296 2.58271 24.7698 4.00458 27.4079 6.33938C27.1425 6.71854 24.8835 9.73729 19.5694 11.7294C17.1194 7.23188 14.4069 3.54813 13.9883 2.97938C15.1394 2.71059 16.3179 2.57698 17.5 2.58125V2.58271ZM11.1417 3.98563C11.5398 4.51792 14.1969 8.21917 16.6833 12.6219C9.69792 14.4827 3.52917 14.4448 2.86563 14.4448C3.83396 9.81312 6.96646 5.96021 11.1417 3.98563ZM2.54333 17.519V17.064C3.18938 17.0829 10.4388 17.1777 17.8996 14.9377C18.3356 15.7733 18.7338 16.6265 19.1129 17.481C18.9233 17.5379 18.7148 17.5948 18.5252 17.6517C10.8194 20.1381 6.71854 26.9325 6.37729 27.5027C3.90893 24.7632 2.54304 21.2064 2.54333 17.519V17.519ZM17.5 32.4567C14.1779 32.4619 10.9501 31.3528 8.33292 29.3067C8.59833 28.7554 11.6346 22.909 20.0623 19.9675C20.1002 19.9485 20.1206 19.9485 20.1571 19.9296C22.2644 25.3765 23.1175 29.9513 23.3465 31.2608C21.5425 32.0396 19.5694 32.4567 17.5 32.4567ZM25.8329 29.8944C25.6813 28.9829 24.8835 24.6181 22.9279 19.2456C27.6165 18.5062 31.7158 19.721 32.2292 19.8917C31.5831 24.0479 29.1915 27.6354 25.8329 29.8944Z" fill="#F1EAE0"/>
</svg>
