<svg width="37" height="37" viewBox="0 0 37 37" fill="none" xmlns="http://www.w3.org/2000/svg">
<path fill-rule="evenodd" clip-rule="evenodd" d="M4.57555e-07 3.09119C4.57555e-07 2.27135 0.325678 1.4851 0.905387 0.90539C1.4851 0.325681 2.27135 4.12098e-06 3.09118 4.12098e-06H33.9055C34.3117 -0.000659443 34.7142 0.078819 35.0897 0.233889C35.4652 0.388959 35.8065 0.616575 36.0939 0.903706C36.3814 1.19084 36.6093 1.53184 36.7648 1.9072C36.9203 2.28256 37.0002 2.6849 37 3.09119V33.9055C37.0004 34.3118 36.9208 34.7143 36.7655 35.0898C36.6102 35.4654 36.3825 35.8066 36.0952 36.094C35.8079 36.3814 35.4668 36.6094 35.0914 36.7649C34.7159 36.9203 34.3135 37.0002 33.9071 37H3.09118C2.6851 37 2.283 36.92 1.90785 36.7645C1.5327 36.6091 1.19186 36.3812 0.904792 36.094C0.617727 35.8068 0.390067 35.4658 0.23482 35.0906C0.0795723 34.7154 -0.000220479 34.3132 4.57555e-07 33.9071V3.09119ZM14.6453 14.1071H19.6554V16.6231C20.3786 15.1767 22.2286 13.875 25.0086 13.875C30.3383 13.875 31.6014 16.756 31.6014 22.0419V31.8335H26.2078V23.2461C26.2078 20.2356 25.4846 18.537 23.648 18.537C21.1001 18.537 20.0405 20.3685 20.0405 23.2461V31.8335H14.6453V14.1071ZM5.39527 31.603H10.7905V13.875H5.39527V31.6014V31.603ZM11.5625 8.09291C11.5727 8.55486 11.4905 9.01419 11.3207 9.44394C11.151 9.87369 10.8971 10.2652 10.574 10.5955C10.2509 10.9258 9.86504 11.1883 9.43913 11.3674C9.01322 11.5466 8.55581 11.6389 8.09375 11.6389C7.63169 11.6389 7.17428 11.5466 6.74837 11.3674C6.32246 11.1883 5.93663 10.9258 5.61352 10.5955C5.29041 10.2652 5.03653 9.87369 4.86678 9.44394C4.69703 9.01419 4.61483 8.55486 4.625 8.09291C4.64497 7.18617 5.01919 6.32329 5.66753 5.68907C6.31588 5.05484 7.18679 4.69971 8.09375 4.69971C9.00071 4.69971 9.87162 5.05484 10.52 5.68907C11.1683 6.32329 11.5425 7.18617 11.5625 8.09291Z" fill="#F1EAE0"/>
</svg>
